<svg xmlns="http://www.w3.org/2000/svg" xml:space="preserve" width="2048" height="2048" style="shape-rendering:geometricPrecision;text-rendering:geometricPrecision;image-rendering:optimizeQuality;fill-rule:evenodd;clip-rule:evenodd"><rect width="2048" height="2048" rx="256.001" ry="256.001" style="fill:#9e9e9e"/><path d="M897.843 1290.83c-54.768 85.827-146.451 229.51-68.454 403.125l45.542 101.372-92.417-61.923C675.231 1661.52 600.308 1590.67 551.8 1515.916c-49.685-76.567-71.52-156.54-71.675-245.039H480v-.183h.125c-.027-18.076.857-36.438 2.597-55.134a725.838 725.838 0 0 1 7.61-57.073c13.206-76.002 41.661-143.728 69.846-210.815 32.45-77.242 64.53-153.593 69-235.43l7.01-128.283 53.865 116.55c20.774 44.948 32.388 83.585 39.38 122.69a540.258 540.258 0 0 1 3.844 24.945c39.208-67.878 72.728-140.725 99.446-217.201 36.247-103.752 60.021-214.37 68.547-328.523l3.22-43.093 40.28 15.754c.67.26 216.458 81.059 326.002 449.657a246.877 246.877 0 0 0 2.023-16.356c4.185-46.068-3.378-95.091-16.99-130.492l-45.756-118.991 96.38 83.537c18.263 15.83 53.01 55.353 90.66 111.178 64.104 95.047 139.651 240.646 163.353 404.427 24.026 166.025-4.91 349.989-151.399 518.54-47.391 54.528-106.895 107.206-180.658 156.825l-90.399 60.808 43.15-99.882c54.479-126.112 63.56-242.077 36.593-346.22-23.691-91.496-75.252-174.704-148.358-248.35-1.485 41.96-7.596 91.518-19.894 141.755-16.377 66.905-43.7 135.848-85.625 191.338l-78.136 103.415 21.136-127.756c8.564-51.765 3.82-94.488-3.9-125.695-1.668 2.624-3.372 5.293-5.109 8.014z" style="fill:#fff;fill-rule:nonzero"/></svg>