<svg xmlns="http://www.w3.org/2000/svg" xml:space="preserve" width="655.359" height="655.359" style="shape-rendering:geometricPrecision;text-rendering:geometricPrecision;image-rendering:optimizeQuality;fill-rule:evenodd;clip-rule:evenodd" viewBox="0 0 6.827 6.827"><defs><style>.fil1{fill:#fffffe;fill-rule:nonzero}</style></defs><path style="fill:#424242" d="M0 0h6.827v6.827H0z"/><g id="Layer_x0020_1"><path class="fil1" d="m1.138 4.973 3.5-3.5.076-.076.075.075.485.485.076.076-.076.075-3.5 3.5-.033.023-.811.353-.234.102.092-.238.326-.838.024-.038zm3.576-3.275-3.41 3.41-.225.579.558-.243 3.41-3.411-.333-.335z"/><path class="fil1" d="m4.638 1.472.495-.495a.448.448 0 0 1 .636 0 .448.448 0 0 1 0 .636l-.495.495-.15-.15.495-.496a.236.236 0 0 0 0-.334.236.236 0 0 0-.335 0l-.495.495-.15-.15zM1.49 5.106a.107.107 0 0 0 .15.15l3.143-3.141a.107.107 0 0 0-.151-.151L1.49 5.106z"/><path style="fill:none" d="M0 0h6.827v6.827H0z"/></g></svg>